<svg width="66" height="26" viewBox="0 0 66 26" fill="none" xmlns="http://www.w3.org/2000/svg">
<path fill-rule="evenodd" clip-rule="evenodd" d="M29.399 21.4473C31.8524 23.854 35.0675 25.0621 38.2826 25.0621C41.4977 25.0621 44.7128 23.854 47.1563 21.4376L65.6555 3.21745C62.569 0.177516 57.5534 0.177516 54.4669 3.21745L41.5669 15.9326C39.7566 17.7156 36.8086 17.7156 34.9983 15.9326L33.4015 14.3599L44.7146 3.21745C41.6281 0.177516 36.6126 0.177516 33.5261 3.21745L20.6162 15.9228C18.8059 17.7059 15.8579 17.7059 14.0475 15.9228L11.1885 13.107C8.10205 10.0671 3.08649 10.0671 0 13.107L8.45818 21.4473C10.9116 23.854 14.1266 25.0621 17.3417 25.0621C20.5568 25.0621 23.7719 23.854 26.2154 21.4376L27.8023 19.8747L29.399 21.4473Z" fill="white"/>
</svg>
